<svg width="237" height="195" viewBox="0 0 237 195" fill="none" xmlns="http://www.w3.org/2000/svg">
<path fill-rule="evenodd" clip-rule="evenodd" d="M76.114 14.974C76.114 7.45946 82.2058 1.36769 89.7204 1.36769C97.2349 1.36769 103.327 7.45946 103.327 14.974C103.327 22.4886 97.2349 28.5804 89.7204 28.5804C82.2058 28.5804 76.114 22.4886 76.114 14.974ZM89.7204 -0.000244141C81.4503 -0.000244141 74.7461 6.70397 74.7461 14.974C74.7461 23.2441 81.4503 29.9483 89.7204 29.9483C97.9904 29.9483 104.695 23.2441 104.695 14.974C104.695 6.70397 97.9904 -0.000244141 89.7204 -0.000244141ZM2.36401 74.5065C2.36401 66.9919 8.45578 60.9001 15.9704 60.9001C23.4849 60.9001 29.5767 66.9919 29.5767 74.5065C29.5767 82.021 23.4849 88.1128 15.9704 88.1128C8.45578 88.1128 2.36401 82.021 2.36401 74.5065ZM15.9704 59.5322C7.7003 59.5322 0.996081 66.2364 0.996081 74.5065C0.996081 82.7765 7.7003 89.4807 15.9704 89.4807C24.2404 89.4807 30.9446 82.7765 30.9446 74.5065C30.9446 66.2364 24.2404 59.5322 15.9704 59.5322ZM66.2418 94.2046C58.7273 94.2046 52.6355 100.296 52.6355 107.811C52.6355 115.326 58.7273 121.417 66.2418 121.417C73.7564 121.417 79.8482 115.326 79.8482 107.811C79.8482 100.296 73.7564 94.2046 66.2418 94.2046ZM51.2676 107.811C51.2676 99.5409 57.9718 92.8367 66.2418 92.8367C74.5119 92.8367 81.2161 99.5409 81.2161 107.811C81.2161 116.081 74.5119 122.785 66.2418 122.785C57.9718 122.785 51.2676 116.081 51.2676 107.811ZM120.868 116.26C120.868 108.746 126.96 102.654 134.474 102.654C141.989 102.654 148.081 108.746 148.081 116.26C148.081 123.775 141.989 129.867 134.474 129.867C126.96 129.867 120.868 123.775 120.868 116.26ZM134.474 101.286C126.204 101.286 119.5 107.99 119.5 116.26C119.5 124.53 126.204 131.234 134.474 131.234C142.744 131.234 149.449 124.53 149.449 116.26C149.449 107.99 142.744 101.286 134.474 101.286ZM172.416 32.3241C164.901 32.3241 158.809 38.4159 158.809 45.9305C158.809 53.445 164.901 59.5368 172.416 59.5368C179.93 59.5368 186.022 53.445 186.022 45.9305C186.022 38.4159 179.93 32.3241 172.416 32.3241ZM157.441 45.9305C157.441 37.6604 164.146 30.9562 172.416 30.9562C180.686 30.9562 187.39 37.6604 187.39 45.9305C187.39 54.2005 180.686 60.9047 172.416 60.9047C164.146 60.9047 157.441 54.2005 157.441 45.9305ZM208.419 101.97C208.419 94.4553 214.511 88.3635 222.025 88.3635C229.54 88.3635 235.632 94.4553 235.632 101.97C235.632 109.484 229.54 115.576 222.025 115.576C214.511 115.576 208.419 109.484 208.419 101.97ZM222.025 86.9956C213.755 86.9956 207.051 93.6998 207.051 101.97C207.051 110.24 213.755 116.944 222.025 116.944C230.295 116.944 236.999 110.24 236.999 101.97C236.999 93.6998 230.295 86.9956 222.025 86.9956ZM45.6911 165.971C38.1765 165.971 32.0847 172.063 32.0847 179.577C32.0847 187.092 38.1765 193.184 45.6911 193.184C53.2056 193.184 59.2974 187.092 59.2974 179.577C59.2974 172.063 53.2056 165.971 45.6911 165.971ZM30.7168 179.577C30.7168 171.307 37.421 164.603 45.6911 164.603C53.9611 164.603 60.6654 171.307 60.6654 179.577C60.6654 187.847 53.9611 194.551 45.6911 194.551C37.421 194.551 30.7168 187.847 30.7168 179.577ZM151.403 179.577C151.403 172.063 157.495 165.971 165.009 165.971C172.524 165.971 178.616 172.063 178.616 179.577C178.616 187.092 172.524 193.184 165.009 193.184C157.495 193.184 151.403 187.092 151.403 179.577ZM165.009 164.603C156.739 164.603 150.035 171.307 150.035 179.577C150.035 187.847 156.739 194.551 165.009 194.551C173.28 194.551 179.984 187.847 179.984 179.577C179.984 171.307 173.28 164.603 165.009 164.603ZM97.6165 32.8428C97.962 32.6901 98.3658 32.8464 98.5185 33.1919L126.935 97.4892C127.088 97.8347 126.931 98.2386 126.586 98.3913C126.24 98.544 125.837 98.3877 125.684 98.0422L97.2673 33.7449C97.1146 33.3994 97.271 32.9955 97.6165 32.8428ZM74.4289 28.1962C74.7228 27.9589 74.7687 27.5283 74.5315 27.2344C74.2942 26.9404 73.8636 26.8945 73.5697 27.1317L31.2641 61.2798C30.9702 61.5171 30.9242 61.9477 31.1615 62.2417C31.3988 62.5356 31.8294 62.5815 32.1233 62.3443L74.4289 28.1962ZM65.2246 179.577C65.2246 179.199 65.5308 178.893 65.9086 178.893H144.797C145.175 178.893 145.481 179.199 145.481 179.577C145.481 179.955 145.175 180.261 144.797 180.261H65.9086C65.5308 180.261 65.2246 179.955 65.2246 179.577ZM163.428 64.0427C163.608 63.7102 163.484 63.2953 163.151 63.116C162.819 62.9366 162.404 63.0607 162.224 63.3932L143.475 98.1477C143.295 98.4802 143.419 98.8951 143.752 99.0744C144.084 99.2538 144.499 99.1297 144.679 98.7972L163.428 64.0427ZM185.36 60.5476C185.642 60.2972 186.075 60.3235 186.325 60.6064L209.142 86.3827C209.392 86.6656 209.366 87.0978 209.083 87.3482C208.8 87.5986 208.368 87.5723 208.118 87.2894L185.301 61.513C185.05 61.2302 185.077 60.7979 185.36 60.5476ZM143.872 134.166C143.708 133.825 143.299 133.683 142.959 133.847C142.619 134.011 142.476 134.42 142.64 134.76L155.617 161.667C155.781 162.007 156.19 162.15 156.53 161.986C156.871 161.822 157.013 161.413 156.849 161.073L143.872 134.166ZM21.2888 93.3093C21.6523 93.2065 22.0303 93.4178 22.1331 93.7813L40.8464 159.93C40.9492 160.293 40.7379 160.671 40.3745 160.774C40.011 160.877 39.633 160.666 39.5301 160.302L20.8168 94.1537C20.714 93.7902 20.9253 93.4122 21.2888 93.3093ZM85.4279 34.7442C85.5206 34.378 85.2988 34.006 84.9326 33.9134C84.5664 33.8208 84.1944 34.0426 84.1018 34.4088L70.5365 88.0408C70.4438 88.407 70.6656 88.779 71.0318 88.8716C71.398 88.9642 71.77 88.7424 71.8626 88.3762L85.4279 34.7442Z" fill="#F9F9F9"/>
</svg>
