<svg width="24" height="24" viewBox="0 0 24 24" fill="none" xmlns="http://www.w3.org/2000/svg">
<path d="M12 0.292847C5.3726 0.292847 0 5.66545 0 12.2928C0 17.6004 3.44963 22.0953 8.22619 23.6782C8.80774 23.7689 9.03002 23.4188 9.03002 23.1081C9.03002 22.8232 9.01501 21.8782 9.01501 20.8732C6 21.4282 5.21998 20.1382 4.98002 19.4632C4.71365 18.8067 4.29148 18.225 3.75 17.7682C3.33002 17.5432 2.73002 16.9882 3.73499 16.9732C4.51378 17.0577 5.20247 17.5168 5.58004 18.2032C5.58121 18.2053 5.58238 18.2074 5.58355 18.2095C6.27606 19.4452 7.83919 19.8856 9.07501 19.1931C9.12694 18.5831 9.39882 18.0127 9.84002 17.5882C7.17005 17.2882 4.38004 16.2531 4.38004 11.6632C4.36312 10.4705 4.80323 9.31664 5.60999 8.43817C5.24311 7.40159 5.28604 6.26406 5.73002 5.25815C5.73002 5.25815 6.73498 4.94313 9.03002 6.48817C10.9936 5.94809 13.0665 5.94809 15.03 6.48817C17.325 4.92811 18.33 5.25815 18.33 5.25815C18.7739 6.26406 18.8169 7.40157 18.45 8.43817C19.2592 9.31517 19.6997 10.47 19.68 11.6632C19.68 16.2681 16.875 17.2882 14.205 17.5882C14.7845 18.1754 15.0801 18.9856 15.015 19.8081C15.015 21.4132 15 22.7032 15 23.1081C14.9992 23.1721 15.0087 23.2357 15.0283 23.2966C15.1281 23.6072 15.4605 23.778 15.7711 23.6791C20.5491 22.097 24 17.6014 24 12.2928C24 5.66545 18.6274 0.292847 12 0.292847Z" fill="#FAFAFF"/>
</svg>
