<svg width="33" height="32" viewBox="0 0 33 32" fill="none" xmlns="http://www.w3.org/2000/svg">
<path d="M12.8108 13.7506C12.1948 13.7507 11.6038 13.9954 11.1682 14.431C10.7327 14.8666 10.488 15.4573 10.488 16.0733C10.4881 16.6893 10.7328 17.28 11.1683 17.7155C11.6039 18.1511 12.1947 18.3958 12.8106 18.3958C13.4266 18.3958 14.0174 18.1511 14.4529 17.7155C14.8885 17.28 15.1332 16.6893 15.1332 16.0733C15.1332 15.4573 14.8886 14.8666 14.453 14.431C14.0175 13.9954 13.4268 13.7507 12.8108 13.7506ZM21.0925 13.7506C20.5852 13.7076 20.0769 13.8188 19.6339 14.0696C19.1909 14.3203 18.834 14.699 18.6098 15.1559C18.3856 15.6129 18.3046 16.127 18.3774 16.6308C18.4502 17.1345 18.6735 17.6046 19.0179 17.9794C19.3623 18.3542 19.8118 18.6163 20.3077 18.7314C20.8035 18.8464 21.3226 18.8091 21.7968 18.6243C22.2711 18.4394 22.6785 18.1157 22.9658 17.6955C23.253 17.2752 23.4067 16.7781 23.4066 16.2691C23.4202 15.9517 23.3711 15.6348 23.2621 15.3364C23.1531 15.0381 22.9864 14.7641 22.7715 14.5303C22.5565 14.2964 22.2976 14.1071 22.0095 13.9734C21.7214 13.8396 21.4098 13.7639 21.0925 13.7506ZM23.3614 24.3466C23.3614 24.3466 22.5444 23.371 21.8637 22.5088C23.5084 22.1216 24.9632 21.1652 25.9707 19.8087C25.1543 20.3522 24.279 20.8012 23.3614 21.1473C22.3058 21.5979 21.2019 21.9253 20.0713 22.1231C18.1281 22.4808 16.1353 22.4731 14.1949 22.1004C13.0556 21.8774 11.9391 21.5509 10.8593 21.1248C10.2902 20.9059 9.73676 20.6481 9.20297 20.3534C9.13482 20.3079 9.06697 20.2852 8.99885 20.2398C8.96471 20.2229 8.93395 20.1999 8.9081 20.1719C8.49987 19.945 8.27259 19.7861 8.27259 19.7861C9.24374 21.114 10.6482 22.061 12.2434 22.4634C11.5629 23.3258 10.7233 24.3466 10.7233 24.3466C9.37552 24.3829 8.03946 24.0874 6.83273 23.486C5.626 22.8846 4.5856 21.9958 3.8031 20.8978C3.87677 16.298 4.9939 11.775 7.07025 7.66976C8.89755 6.23464 11.1253 5.40219 13.446 5.28735L13.6727 5.55974C11.4894 6.09998 9.45203 7.1148 7.70556 8.532C7.70556 8.532 8.2048 8.25976 9.04416 7.87401C10.6752 7.12946 12.4135 6.64708 14.195 6.44468C14.3221 6.41824 14.4512 6.40301 14.5809 6.39917C16.1013 6.2011 17.64 6.18591 19.164 6.35392C21.5608 6.62759 23.8809 7.36751 25.9936 8.532C24.3357 7.18243 22.4101 6.20025 20.3442 5.65043L20.6617 5.28757C22.9824 5.40232 25.2101 6.23478 27.0374 7.66998C29.1139 11.7751 30.2312 16.2981 30.3048 20.8979C29.516 21.9949 28.471 22.8825 27.2609 23.4835C26.0508 24.0846 24.7121 24.3809 23.3614 24.3466Z" fill="#111111"/>
</svg>
