<svg width="24" height="20" viewBox="0 0 24 20" fill="none" xmlns="http://www.w3.org/2000/svg">
<path d="M19.5967 18.766C19.5278 18.9379 19.4229 19.0931 19.2891 19.2211C19.1553 19.3491 18.9957 19.4471 18.821 19.5084C18.6462 19.5697 18.4604 19.5929 18.2759 19.5765C18.0915 19.5601 17.9126 19.5045 17.7514 19.4134L12.7521 15.5287L9.54348 18.4889C9.46903 18.544 9.38194 18.5793 9.29022 18.5919C9.1985 18.6044 9.10511 18.5937 9.01863 18.5606L9.63372 13.0571L9.65341 13.0727L9.66598 12.9641C9.66598 12.9641 18.6622 4.77358 19.0286 4.42462C19.3997 4.07656 19.2773 4.00105 19.2773 4.00105C19.2984 3.57651 18.6115 4.00105 18.6115 4.00105L6.69174 11.6695L1.72774 9.97894C1.72774 9.97894 0.965323 9.70546 0.893501 9.10418C0.817995 8.50751 1.75259 8.18338 1.75259 8.18338L21.4889 0.342783C21.4889 0.342783 23.1114 -0.380079 23.1114 0.817012L19.5967 18.766Z" fill="#F9F9F9"/>
</svg>
