<svg width="221" height="265" viewBox="0 0 221 265" fill="none" xmlns="http://www.w3.org/2000/svg">
<path fill-rule="evenodd" clip-rule="evenodd" d="M138.191 23.4049L138.932 20.1909L136.942 22.8214L41.2414 149.336L40.3867 150.466H41.8034H103.132L82.975 237.895L82.2341 241.109L84.2236 238.478L179.925 111.964L180.779 110.834H179.363H118.029L138.191 23.4049ZM104.018 149.056H43.22L136.076 26.3022L116.457 111.381L116.258 112.244H117.144H177.946L85.0892 234.998L104.704 149.919L104.903 149.056H104.018ZM120.857 33.5743C121.168 33.8092 121.229 34.2511 120.994 34.5615L82.6876 85.1954C82.4528 85.5058 82.0108 85.5671 81.7005 85.3323C81.3901 85.0974 81.3288 84.6555 81.5636 84.3451L119.87 33.7112C120.105 33.4008 120.547 33.3395 120.857 33.5743ZM135.478 181.239C135.788 181.474 135.849 181.915 135.614 182.226L101.498 227.316C101.264 227.627 100.822 227.688 100.511 227.453C100.201 227.218 100.14 226.776 100.374 226.466L134.491 181.375C134.725 181.065 135.167 181.004 135.478 181.239Z" fill="#F9F9F9"/>
</svg>
