<svg width="208" height="242" viewBox="0 0 208 242" fill="none" xmlns="http://www.w3.org/2000/svg">
<path fill-rule="evenodd" clip-rule="evenodd" d="M78.0493 1.11958C78.2933 0.875504 78.6891 0.875504 78.9331 1.11958C84.5383 6.72472 86.0636 13.3943 85.6315 20.5579C85.2324 27.1749 83.1581 34.2739 81.0746 41.4043L81.0746 41.4044L80.8323 42.2339C95.9766 37.889 111.856 34.0375 124.465 46.647C136.924 59.1056 133.309 74.7498 129.001 89.701L129.175 89.6507L129.182 89.6485C136.365 87.57 143.524 85.4984 150.204 85.1269C157.399 84.7266 164.107 86.2935 169.762 91.9487C170.006 92.1928 170.006 92.5885 169.762 92.8326C169.518 93.0767 169.122 93.0767 168.878 92.8326C163.542 87.4963 157.221 85.9884 150.273 86.3749C143.741 86.7383 136.715 88.7708 129.49 90.8607L129.478 90.8643L128.59 91.1212C128.438 91.6411 128.287 92.16 128.135 92.6778L128.135 92.6779C126.042 99.8478 124.007 106.814 123.617 113.283C123.199 120.2 124.668 126.479 129.949 131.762C130.193 132.006 130.193 132.402 129.949 132.646C129.705 132.89 129.309 132.89 129.065 132.646C123.461 127.04 121.937 120.371 122.369 113.207C122.768 106.591 124.842 99.4925 126.925 92.3627L126.925 92.3626L126.929 92.3503L127.168 91.5307C112.023 95.8759 96.1433 99.7282 83.5332 87.1181C71.0745 74.6594 74.691 59.0149 78.9994 44.0636L78.8163 44.1166C71.6336 46.1951 64.475 48.2667 57.795 48.6383C50.5993 49.0386 43.8915 47.4716 38.2363 41.8165C37.9922 41.5724 37.9922 41.1767 38.2363 40.9326C38.4804 40.6885 38.8761 40.6885 39.1202 40.9326C44.4565 46.2689 50.7772 47.7767 57.7255 47.3902C64.2571 47.0269 71.2834 44.9944 78.5081 42.9044L79.4109 42.6434C79.5598 42.1318 79.7089 41.6213 79.8577 41.1117L79.8643 41.0893C81.9587 33.9187 83.9935 26.9522 84.3838 20.4826C84.801 13.5648 83.3321 7.28634 78.0493 2.00347C77.8052 1.75939 77.8052 1.36366 78.0493 1.11958ZM84.4171 86.2343C72.3297 74.1468 75.9902 58.9367 80.4192 43.6534C95.9175 39.1872 111.351 35.3001 123.581 47.5309C135.669 59.6182 132.01 74.8281 127.581 90.1112C112.082 94.5777 96.6484 98.4655 84.4171 86.2343ZM14.8726 174.477C16.2852 173.065 18.5756 173.065 19.9883 174.477L66.7609 221.25C68.1735 222.663 68.1735 224.953 66.7609 226.366L54.3726 238.754C52.96 240.167 50.6696 240.167 49.257 238.754L2.48435 191.981C1.0717 190.569 1.0717 188.278 2.48436 186.866L14.8726 174.477ZM20.8721 173.594C18.9713 171.693 15.8895 171.693 13.9887 173.594L1.60048 185.982C-0.300332 187.883 -0.300342 190.964 1.60047 192.865L48.3731 239.638C50.2739 241.539 53.3557 241.539 55.2565 239.638L67.6448 227.25C69.5456 225.349 69.5456 222.267 67.6448 220.366L63.8869 216.608L76.0879 204.407H126.206C137.292 204.407 147.925 200.005 155.765 192.165L203.663 144.267C209.212 138.718 209.212 129.72 203.663 124.171C198.114 118.621 189.116 118.621 183.567 124.171L153.285 154.452C152.686 147.156 146.575 141.423 139.125 141.423H77.875C66.7884 141.423 56.1552 145.825 48.3152 153.665L24.6292 177.351L20.8721 173.594ZM25.5131 178.235L63.003 215.724L75.3871 203.34L75.5702 203.157H75.8291H126.206C136.961 203.157 147.276 198.887 154.881 191.281L202.779 143.383C207.84 138.322 207.84 130.116 202.779 125.055C197.718 119.993 189.512 119.993 184.45 125.055L153.323 156.182C153.033 163.773 146.788 169.838 139.125 169.838H85.2638C84.9186 169.838 84.6388 169.559 84.6388 169.213C84.6388 168.868 84.9186 168.588 85.2638 168.588H139.125C146.149 168.588 151.867 163 152.077 156.028C152.065 155.952 152.067 155.875 152.082 155.799C152.083 155.743 152.083 155.687 152.083 155.63C152.083 148.474 146.282 142.673 139.125 142.673H77.875C67.1197 142.673 56.8046 146.943 49.1991 154.549L25.5131 178.235Z" fill="#FAFAFF"/>
</svg>
