<svg width="227" height="108" viewBox="0 0 227 108" fill="none" xmlns="http://www.w3.org/2000/svg">
<path fill-rule="evenodd" clip-rule="evenodd" d="M113.732 1.50331C101.198 1.50331 91.0367 11.6642 91.0367 24.1983C91.0367 36.7324 101.198 46.8933 113.732 46.8933C126.266 46.8933 136.427 36.7324 136.427 24.1983C136.427 11.6642 126.266 1.50331 113.732 1.50331ZM89.5334 24.1983C89.5334 10.8339 100.367 0 113.732 0C127.096 0 137.93 10.8339 137.93 24.1983C137.93 37.5627 127.096 48.3966 113.732 48.3966C100.367 48.3966 89.5334 37.5627 89.5334 24.1983ZM164.027 22.4144C164.027 10.8655 173.389 1.50332 184.938 1.50332C196.487 1.50332 205.849 10.8655 205.849 22.4144C205.849 33.9632 196.487 43.3254 184.938 43.3254C173.389 43.3254 164.027 33.9632 164.027 22.4144ZM184.938 1.13155e-05C172.559 1.13155e-05 162.524 10.0353 162.524 22.4144C162.524 34.7935 172.559 44.8288 184.938 44.8288C197.317 44.8288 207.352 34.7935 207.352 22.4144C207.352 10.0353 197.317 1.13155e-05 184.938 1.13155e-05ZM164.772 47.9779L164.595 47.328L163.929 47.4339C157.566 48.4464 151.992 51.8056 148.121 56.602C144.746 54.0788 140.772 52.3112 136.451 51.5499L135.779 51.4315L135.596 52.0893C132.938 61.6747 124.178 68.7064 113.726 68.7064C103.275 68.7064 94.4701 61.6353 91.8362 52.0165L91.6583 51.3668L90.9931 51.4727C86.5023 52.1874 82.373 53.9872 78.8826 56.595C75.0929 51.9055 69.6731 48.5919 63.4902 47.501L62.8172 47.3823L62.6351 48.0409C60.1922 56.8739 52.1138 63.3546 42.4836 63.3546C32.854 63.3546 24.7411 56.8397 22.3176 47.9778L22.1399 47.3279L21.4745 47.4338C9.30419 49.3701 0 59.9175 0 72.63V94.2576C0 96.9277 2.16556 99.0933 4.83565 99.0933H67.8049V102.426C67.8049 105.096 69.9704 107.261 72.6405 107.261H154.361C157.031 107.261 159.196 105.096 159.196 102.426V99.0933H222.165C224.835 99.0933 227.001 96.9278 227.001 94.2577V72.63C227.001 60.0569 217.908 49.6129 205.945 47.5011L205.272 47.3824L205.09 48.0405C202.642 56.8688 194.544 63.3546 184.938 63.3546C175.333 63.3546 167.196 56.8393 164.772 47.9779ZM67.8049 97.59V78.6833C67.8049 70.1821 71.6536 62.5813 77.7031 57.5272C74.2715 53.2866 69.4246 50.2451 63.8887 49.1074C61.0562 58.233 52.5637 64.8579 42.4836 64.8579C32.3988 64.8579 23.8695 58.1934 21.0582 49.0315C9.92798 51.12 1.50331 60.8963 1.50331 72.63V94.2576C1.50331 96.0975 2.99581 97.59 4.83565 97.59H67.8049ZM159.196 97.59H222.165C224.005 97.59 225.498 96.0975 225.498 94.2577V72.63C225.498 61.0314 217.274 51.3552 206.343 49.1075C203.505 58.2283 194.994 64.8579 184.938 64.8579C174.878 64.8579 166.325 58.1939 163.513 49.0316C157.805 50.1024 152.811 53.19 149.3 57.5345C155.168 62.4391 158.962 69.7393 159.181 77.9317H159.196V78.6833V97.59ZM157.688 79.435H157.693V102.426C157.693 104.265 156.2 105.758 154.361 105.758H72.6405C70.8007 105.758 69.3082 104.265 69.3082 102.426V78.6833C69.3082 65.9277 78.474 55.3143 90.576 53.0699C93.5979 62.9886 102.819 70.2097 113.726 70.2097C124.629 70.2097 133.803 63.0329 136.851 53.1556C148.743 55.5697 157.688 66.0824 157.688 78.6833V79.435ZM42.4884 1.50332C30.9396 1.50332 21.5774 10.8655 21.5774 22.4144C21.5774 33.9632 30.9396 43.3254 42.4884 43.3254C54.0373 43.3254 63.3995 33.9632 63.3995 22.4144C63.3995 10.8655 54.0373 1.50332 42.4884 1.50332ZM20.0741 22.4144C20.0741 10.0353 30.1093 1.13155e-05 42.4884 1.13155e-05C54.8675 1.13155e-05 64.9028 10.0353 64.9028 22.4144C64.9028 34.7935 54.8675 44.8288 42.4884 44.8288C30.1093 44.8288 20.0741 34.7935 20.0741 22.4144Z" fill="#F9F9F9"/>
</svg>
