<svg width="471" height="360" viewBox="0 0 471 360" fill="none" xmlns="http://www.w3.org/2000/svg">
<path d="M306.178 174.151C306.178 168.15 301.988 163.58 294.041 163.58H278.313V201.292H284.135V185.988H294.69C297.625 185.988 299.64 187.141 299.64 190.614V201.298H305.517V190.066C305.517 185.276 302.847 183.347 299.535 183.183V182.912C302.415 182.03 306.172 179.773 306.172 174.157L306.178 174.151ZM293.337 181.034H284.141L284.197 168.427H293.176C298.126 168.427 300.196 171.182 300.196 174.592C300.196 178.002 298.021 181.034 293.343 181.034H293.337ZM149.286 162.856L145.133 158.651L140.956 162.881L145.115 167.085L149.292 162.856H149.286ZM182.99 163.58L168.085 201.292H174.345L178.263 191.327H194.312L198.174 201.292H204.539L189.683 163.58H182.99ZM179.728 186.486L186.148 169.802H186.42L192.73 186.486H179.728ZM164.735 167.45L160.607 163.177L148.958 174.693C146.839 176.785 143.397 176.785 141.283 174.693L129.628 163.171L125.5 167.45V201.298H131.383V173.262L137.149 178.96C139.343 181.135 142.235 182.219 145.121 182.219C148.007 182.219 150.893 181.135 153.093 178.96L158.747 173.369V201.292H164.742V167.45H164.735ZM330.644 163.587H323.951L309.046 201.298H315.306L319.224 191.333H335.272L339.135 201.298H345.5L330.65 163.587H330.644ZM320.688 186.492L327.109 169.808H327.381L333.69 186.492H320.688ZM233.628 192.493H233.356L214.532 163.58H207.951V201.292H213.828V172.72H214.099L232.651 201.292L239.504 201.349V163.58H233.628V192.486V192.493ZM243.348 168.49H256.029V201.305H261.745L261.801 168.49H274.476V163.58H243.354V168.478L243.348 168.49Z" fill="url(#paint0_linear_321_96)"/>
<rect x="0.5" y="0.5" width="470" height="359" rx="11.5" stroke="#7979A3"/>
<defs>
<linearGradient id="paint0_linear_321_96" x1="312.156" y1="158.651" x2="254.559" y2="269.364" gradientUnits="userSpaceOnUse">
<stop offset="0.372396" stop-color="white"/>
</linearGradient>
</defs>
</svg>
