<svg width="206" height="44" viewBox="0 0 206 44" fill="none" xmlns="http://www.w3.org/2000/svg">
<path fill-rule="evenodd" clip-rule="evenodd" d="M129.898 28.9294C129.085 28.5826 128.443 28.083 127.97 27.4305C127.496 26.778 127.254 26.0061 127.239 25.1187H130.364C130.405 25.7153 130.617 26.1888 130.997 26.5356C131.378 26.8824 131.904 27.0576 132.571 27.0576C133.238 27.0576 133.787 26.8935 134.174 26.5692C134.562 26.241 134.76 25.816 134.76 25.2865C134.76 24.854 134.629 24.4998 134.364 24.2239C134.1 23.9479 133.772 23.728 133.376 23.5676C132.981 23.4073 132.433 23.232 131.739 23.0344C130.796 22.7585 130.028 22.4826 129.435 22.2104C128.846 21.9382 128.339 21.5318 127.914 20.98C127.489 20.4319 127.28 19.6973 127.28 18.7801C127.28 17.9188 127.496 17.1693 127.925 16.528C128.354 15.8904 128.962 15.3982 129.737 15.0589C130.517 14.7196 131.404 14.5481 132.403 14.5481C133.902 14.5481 135.121 14.9135 136.061 15.6443C137.001 16.3751 137.515 17.393 137.612 18.698H134.402C134.372 18.1984 134.163 17.7845 133.768 17.4564C133.373 17.1283 132.847 16.968 132.194 16.968C131.624 16.968 131.169 17.1134 130.83 17.4042C130.49 17.695 130.319 18.1201 130.319 18.6757C130.319 19.0635 130.446 19.3878 130.703 19.6451C130.96 19.9024 131.281 20.1112 131.661 20.2715C132.042 20.4319 132.582 20.6146 133.276 20.8234C134.219 21.103 134.991 21.3789 135.587 21.6586C136.184 21.9382 136.699 22.3521 137.131 22.9077C137.56 23.4632 137.776 24.194 137.776 25.0964C137.776 25.8756 137.575 26.5953 137.172 27.2627C136.769 27.9301 136.18 28.4596 135.401 28.8585C134.622 29.2538 133.697 29.4514 132.631 29.4514C131.616 29.4514 130.703 29.2799 129.89 28.9294H129.898ZM84.5351 20.7562V17.1096H90.0572V14.7345H81.6156V29.2984H90.0572V26.9233H84.5351V23.0679H89.4345V20.7562H84.5351ZM72.7155 29.3061V14.757H69.796V20.7377H63.5655V14.757H60.646V29.3061H63.5655V23.1166H69.796V29.3061H72.7155ZM101.877 26.9906H106.668V29.3023H98.9576V14.757H101.877V26.9906ZM118.484 29.3061V14.757H115.565V29.3061H118.484ZM166.005 14.7607L166.006 14.757V14.7607H166.005ZM166.005 14.7607L161.941 29.3061H158.504L155.774 18.948L152.918 29.3061L149.499 29.3284L145.58 14.7607H148.705L151.27 26.0584L154.231 14.7607H157.482L160.275 25.9951L162.859 14.7607H166.005ZM182.438 26.5318H176.643L175.685 29.3022H172.62L177.851 14.7345H181.248L186.479 29.3022H183.396L182.438 26.5318ZM181.647 24.1977L179.54 18.1126L177.434 24.1977H181.643H181.647ZM203.016 23.0942C203.803 22.6766 204.377 22.1285 204.746 21.4461H204.742C205.111 20.7638 205.294 20.0367 205.294 19.2574C205.294 18.3961 205.096 17.628 204.701 16.9457C204.306 16.2671 203.709 15.7339 202.919 15.3424C202.128 14.9509 201.17 14.757 200.044 14.757H194.686V29.3061H197.606V23.7206H200.044C201.241 23.7206 202.229 23.5118 203.016 23.0942ZM202.3 19.2612C202.3 19.9249 202.102 20.4431 201.715 20.8123L201.718 20.816C201.327 21.1851 200.73 21.3678 199.925 21.3678H197.613V17.1359H199.925C201.509 17.1359 202.3 17.8443 202.3 19.2612Z" fill="#F9F9F9"/>
<path d="M33.2257 1.29685V14.0935L23.8408 20.0593C23.3598 20.365 22.7446 20.365 22.2636 20.0593L12.8786 14.0935V1.22601C12.8786 0.260298 11.8123 -0.325095 10.9957 0.193183L1.13723 6.46099C0.428791 6.91215 0 7.69143 0 8.53037V35.4696C0 36.3086 0.428791 37.0878 1.13723 37.539L10.9957 43.8068C11.8123 44.3251 12.8786 43.7397 12.8786 42.774V29.9214L22.2636 23.9519C22.7446 23.6462 23.3598 23.6462 23.8408 23.9519L33.2257 29.9214V42.6808C33.2257 43.6465 34.2921 44.2319 35.1087 43.7136L44.9671 37.4458C45.6756 36.9946 46.1044 36.2154 46.1044 35.3764V8.59749C46.1044 7.75855 45.6756 6.97927 44.9671 6.5281L35.1087 0.260298C34.2921 -0.25798 33.2257 0.327413 33.2257 1.29313V1.29685ZM43.6696 33.6724L35.6568 28.5791V15.432L43.6696 10.335V33.6724ZM35.6568 3.49674L42.7747 8.02328L35.6568 12.5461V3.49674ZM10.4439 3.42589V12.5498L3.27 7.98599L10.4439 3.42217V3.42589ZM10.4439 28.5829L2.43106 33.6762V10.335L10.4439 15.432V28.5791V28.5829ZM10.4439 40.5741L3.28118 36.0215L10.4439 31.4688V40.5778V40.5741ZM12.8786 27.0355V16.9831L20.787 22.0093L12.8786 27.0355ZM25.321 22.0093L33.2294 16.9831V27.0355L25.321 22.0093ZM35.6605 40.4846V31.4688L42.7523 35.9767L35.6605 40.4846Z" fill="url(#paint0_linear_288_280)"/>
<defs>
<linearGradient id="paint0_linear_288_280" x1="11.7265" y1="-0.187136" x2="34.307" y2="44.1237" gradientUnits="userSpaceOnUse">
<stop stop-color="#F62ED6"/>
<stop offset="1" stop-color="#2D46FC"/>
</linearGradient>
</defs>
</svg>
