<svg width="471" height="360" viewBox="0 0 471 360" fill="none" xmlns="http://www.w3.org/2000/svg">
<path d="M345.051 170.958C345.051 161.683 338.557 154.619 326.239 154.619H301.861V212.912H310.884V189.256H327.244C331.794 189.256 334.917 191.039 334.917 196.407V212.922H344.026V195.56C344.026 188.155 339.888 185.174 334.754 184.92V184.501C339.218 183.137 345.041 179.649 345.041 170.968L345.051 170.958ZM325.147 181.598H310.894L310.98 162.112H324.898C332.57 162.112 335.779 166.369 335.779 171.64C335.779 176.911 332.407 181.598 325.156 181.598H325.147ZM101.868 153.499L95.4314 147L88.9562 153.538L95.4026 160.036L101.878 153.499H101.868ZM154.11 154.619L131.006 212.912H140.71L146.783 197.508H171.658L177.645 212.912H187.511L164.484 154.619H154.11ZM149.053 190.026L159.005 164.236H159.426L169.206 190.026H149.053ZM125.815 160.601L119.416 153.996L101.361 171.796C98.0751 175.031 92.7398 175.031 89.4639 171.796L71.3985 153.986L65 160.601V212.922H74.1189V169.585L83.0558 178.392C86.4562 181.754 90.939 183.43 95.4122 183.43C99.8854 183.43 104.359 181.754 107.769 178.392L116.533 169.75V212.912H125.824V160.601H125.815ZM382.973 154.629H372.599L349.496 212.922H359.199L365.272 197.518H390.147L396.134 212.922H406L382.983 154.629H382.973ZM367.542 190.035L377.494 164.245H377.915L387.695 190.035H367.542ZM232.598 199.311H232.176L203 154.619H192.798V212.912H201.908V168.747H202.329L231.084 212.912L241.707 213V154.619H232.598V199.301V199.311ZM247.665 162.209H267.32V212.932H276.181L276.267 162.209H295.913V154.619H247.674V162.19L247.665 162.209Z" fill="url(#paint0_linear_540_141)"/>
<defs>
<linearGradient id="paint0_linear_540_141" x1="354.317" y1="147" x2="265.426" y2="318.334" gradientUnits="userSpaceOnUse">
<stop offset="0.372396" stop-color="white"/>
</linearGradient>
</defs>
</svg>
