<svg width="128" height="32" viewBox="0 0 128 32" fill="none" xmlns="http://www.w3.org/2000/svg">
<path fill-rule="evenodd" clip-rule="evenodd" d="M15.3273 4.5C15.462 4.5 15.5939 4.48817 15.7221 4.46548L16.7643 6.92795C16.3759 7.24893 16.1283 7.73437 16.1283 8.27761C16.1283 9.24409 16.9119 10.0276 17.8783 10.0276C18.8449 10.0276 19.6283 9.24409 19.6283 8.27761C19.6283 8.12096 19.6078 7.96912 19.5692 7.82465L21.8026 6.45125C21.9823 6.6345 22.1931 6.78714 22.4264 6.90063L21.8218 9.50466C20.9056 9.56037 20.1797 10.3211 20.1797 11.2514C20.1797 12.2179 20.9632 13.0014 21.9297 13.0014C22.6751 13.0014 23.3116 12.5354 23.5639 11.8788L26.1785 12.0807C26.2167 12.3413 26.2996 12.5874 26.4192 12.8109L24.3989 14.5631C24.1276 14.3903 23.8056 14.2902 23.4601 14.2902C22.4936 14.2902 21.7101 15.0737 21.7101 16.0403C21.7101 17.0067 22.4936 17.7903 23.4601 17.7903C23.8115 17.7903 24.1387 17.6867 24.4129 17.5084L26.4092 19.2075C26.292 19.4319 26.2114 19.6786 26.1756 19.9394L23.5117 20.1697C23.2555 19.5211 22.623 19.0622 21.8834 19.0622C20.9169 19.0622 20.1334 19.8457 20.1334 20.8122C20.1334 21.7479 20.8677 22.5121 21.7915 22.5599L22.4078 25.1085C22.1758 25.224 21.9665 25.3785 21.7885 25.5633L19.4982 24.1835C19.5342 24.0437 19.5533 23.8971 19.5533 23.7461C19.5533 22.7796 18.7698 21.9961 17.8033 21.9961C16.8368 21.9961 16.0533 22.7796 16.0533 23.7461C16.0533 24.2951 16.3062 24.7851 16.7018 25.106L15.7017 27.5307C15.5799 27.5103 15.4549 27.4997 15.3273 27.4997C15.1927 27.4997 15.0609 27.5115 14.9329 27.5342L13.8913 25.0721C14.2798 24.7511 14.5273 24.2657 14.5273 23.7224C14.5273 22.7559 13.7438 21.9724 12.7773 21.9724C11.8109 21.9724 11.0273 22.7559 11.0273 23.7224C11.0273 23.879 11.0479 24.0308 11.0865 24.1752L8.85154 25.5492C8.67204 25.366 8.46147 25.2134 8.22836 25.0999L8.83295 22.4956C9.74899 22.4397 10.4746 21.6791 10.4746 20.7489C10.4746 19.7824 9.69112 18.9989 8.72464 18.9989C7.97945 18.9989 7.34305 19.4646 7.09066 20.1209L4.47607 19.919C4.43784 19.6583 4.35491 19.4122 4.2353 19.1886L6.25562 17.4364C6.52708 17.6095 6.84948 17.7098 7.19531 17.7098C8.16184 17.7098 8.94528 16.9263 8.94528 15.9598C8.94528 14.9933 8.16184 14.2098 7.19531 14.2098C6.84364 14.2098 6.5162 14.3135 6.24191 14.4921L4.24511 12.7926C4.36249 12.5681 4.4431 12.3214 4.47895 12.0604L7.14252 11.8302C7.39878 12.4786 8.03115 12.9372 8.77066 12.9372C9.73714 12.9372 10.5207 12.1538 10.5207 11.1872C10.5207 10.2518 9.78671 9.48779 8.86329 9.43963L8.24694 6.89099C8.4789 6.77536 8.68808 6.62085 8.86596 6.43599L11.157 7.81595C11.121 7.95584 11.1018 8.1025 11.1018 8.25364C11.1018 9.22012 11.8854 10.0036 12.8518 10.0036C13.8184 10.0036 14.6018 9.22012 14.6018 8.25364C14.6018 7.70484 14.3493 7.21505 13.954 6.8942L14.9537 4.46913C15.0752 4.48943 15.2 4.5 15.3273 4.5ZM14.0292 4.088C13.4533 3.68052 13.0773 3.00917 13.0773 2.25C13.0773 1.00736 14.0846 0 15.3273 0C16.5699 0 17.5773 1.00736 17.5773 2.25C17.5773 3.00145 17.2089 3.66686 16.6429 4.0755L17.6852 6.53816C17.7486 6.5312 17.8131 6.52762 17.8783 6.52762C18.3265 6.52762 18.7353 6.69607 19.0449 6.97309L21.2782 5.59978C21.2011 5.37268 21.1593 5.12928 21.1593 4.87612C21.1593 3.63348 22.1667 2.62612 23.4093 2.62612C24.652 2.62612 25.6593 3.63348 25.6593 4.87612C25.6593 6.11876 24.652 7.12612 23.4093 7.12612L23.4006 7.1261L22.796 9.73053C23.2211 9.97319 23.5346 10.3889 23.6406 10.8817L26.2553 11.0837C26.5398 10.1671 27.3944 9.5014 28.4046 9.5014C29.6472 9.5014 30.6546 10.5088 30.6546 11.7514C30.6546 12.994 29.6472 14.0014 28.4046 14.0014C27.9069 14.0014 27.447 13.8398 27.0745 13.5663L25.0546 15.3181C25.1545 15.5382 25.2101 15.7828 25.2101 16.0403C25.2101 16.2918 25.157 16.531 25.0614 16.7472L27.0574 18.446C27.433 18.1649 27.8993 17.9983 28.4046 17.9983C29.6472 17.9983 30.6546 19.0057 30.6546 20.2483C30.6546 21.491 29.6472 22.4983 28.4046 22.4983C27.4017 22.4983 26.552 21.8422 26.2615 20.9357L23.5976 21.166C23.4961 21.6604 23.1861 22.0787 22.7636 22.3251L23.38 24.8741L23.4093 24.8739C24.652 24.8739 25.6593 25.8812 25.6593 27.1239C25.6593 28.3665 24.652 29.3739 23.4093 29.3739C22.1667 29.3739 21.1593 28.3665 21.1593 27.1239C21.1593 26.8778 21.1988 26.641 21.2718 26.4194L18.9818 25.0398C18.6708 25.3233 18.2572 25.4961 17.8033 25.4961C17.7435 25.4961 17.6845 25.4931 17.6263 25.4872L16.6261 27.9122C17.2016 28.3197 17.5773 28.9909 17.5773 29.7497C17.5773 30.9924 16.5699 31.9997 15.3273 31.9997C14.0846 31.9997 13.0773 30.9924 13.0773 29.7497C13.0773 28.9981 13.4458 28.3326 14.012 27.924L12.9703 25.4619C12.907 25.4688 12.8426 25.4724 12.7773 25.4724C12.3292 25.4724 11.9203 25.3039 11.6107 25.0268L9.37573 26.4008C9.45271 26.6277 9.49445 26.8709 9.49445 27.1239C9.49445 28.3665 8.48709 29.3739 7.24442 29.3739C6.00178 29.3739 4.99442 28.3665 4.99442 27.1239C4.99442 25.8812 6.00178 24.8739 7.24442 24.8739L7.25423 24.8739L7.85873 22.27C7.43325 22.0273 7.11947 21.6112 7.01359 21.1179L4.39926 20.9161C4.1148 21.8327 3.26014 22.4983 2.25 22.4983C1.00736 22.4983 0 21.491 0 20.2483C0 19.0057 1.00736 17.9983 2.25 17.9983C2.74755 17.9983 3.20738 18.1598 3.57993 18.4333L5.60035 16.681C5.50076 16.4611 5.44531 16.2169 5.44531 15.9598C5.44531 15.7085 5.49829 15.4695 5.59368 15.2535L3.5968 13.554C3.2213 13.835 2.75508 14.0014 2.25 14.0014C1.00736 14.0014 0 12.994 0 11.7514C0 10.5088 1.00736 9.5014 2.25 9.5014C3.25295 9.5014 4.10263 10.1576 4.3931 11.0641L7.05633 10.8339C7.15779 10.3391 7.46811 9.92037 7.89113 9.67397L7.27492 7.12591L7.24442 7.12612C6.00178 7.12612 4.99442 6.11876 4.99442 4.87612C4.99442 3.63348 6.00178 2.62612 7.24442 2.62612C8.48709 2.62612 9.49445 3.63348 9.49445 4.87612C9.49445 5.1218 9.45508 5.35828 9.38229 5.5796L11.6736 6.9597C11.9845 6.67638 12.398 6.50363 12.8518 6.50363C12.9119 6.50363 12.9712 6.50665 13.0297 6.51255L14.0292 4.088ZM38.3998 4.79994H46.3954V6.22817H43.362V13.8027H41.4333V6.22817H38.3998V4.79994ZM47.9208 4.79994H49.8373V8.52922H53.6215V4.79994H55.5441V13.8027H53.6215V9.93914H49.8373V13.8027H47.9208V4.79994ZM64.235 4.79994H57.6981V13.8027H64.3631V12.3805H59.6147V9.9025H63.6124V8.48034H59.6147V6.22817H64.235V4.79994ZM69.9166 4.79994H71.8331V8.52922H75.6173V4.79994H77.5399V13.8027H75.6173V9.93914H71.8331V13.8027H69.9166V4.79994ZM84.156 4.79994H79.6939V13.8027H84.156C84.7008 13.8027 85.1888 13.7151 85.6208 13.5402C86.052 13.3611 86.4 13.0865 86.664 12.7162C86.9328 12.3459 87.0672 11.9044 87.0672 11.3917C87.0672 10.2483 86.4808 9.53626 85.3088 9.25554V9.1273C85.4432 9.09074 85.572 9.04802 85.6936 8.99914C85.816 8.94626 85.956 8.8649 86.1152 8.75498C86.2776 8.64514 86.416 8.51898 86.5296 8.37659C86.644 8.23419 86.7416 8.04698 86.8232 7.81508C86.904 7.58314 86.9448 7.32477 86.9448 7.03994C86.9448 6.31972 86.6848 5.76634 86.164 5.37978C85.6432 4.99322 84.9736 4.79994 84.156 4.79994ZM81.6104 8.52922V6.22817H83.6552C84.0824 6.22817 84.4224 6.32379 84.6744 6.51503C84.9304 6.70627 85.0592 6.99314 85.0592 7.37562C85.0592 7.75405 84.9304 8.0409 84.6744 8.23618C84.4184 8.43154 84.0784 8.52922 83.6552 8.52922H81.6104ZM81.6104 12.3805V9.9513H83.6792C84.1312 9.9513 84.4936 10.0531 84.7656 10.2565C85.0424 10.4559 85.1808 10.759 85.1808 11.1659C85.1808 11.5728 85.0424 11.878 84.7656 12.0815C84.4936 12.2808 84.1312 12.3805 83.6792 12.3805H81.6104ZM88.0918 13.8027V13.6134L91.1678 4.79994H93.591L96.667 13.6134V13.8027H94.7382L94.079 11.7885H90.6798L90.0142 13.8027H88.0918ZM91.1006 10.3907H93.6518L92.4438 6.69203H92.315L91.1006 10.3907ZM105.089 9.27378C105.464 8.80995 105.651 8.24026 105.651 7.56484C105.651 6.71442 105.362 6.04099 104.785 5.54458C104.206 5.04815 103.478 4.79994 102.599 4.79994H98.2109V13.8027H100.127V10.3419H101.635L103.564 13.8027H105.56V13.6134L103.588 10.2138C104.215 10.0469 104.715 9.73362 105.089 9.27378ZM100.127 8.9137V6.22817H102.215C102.683 6.22817 103.055 6.34414 103.332 6.57606C103.609 6.808 103.747 7.13759 103.747 7.56484C103.747 7.99615 103.609 8.32978 103.332 8.56578C103.055 8.79778 102.683 8.9137 102.215 8.9137H100.127ZM39.0226 17.2999H45.2604V18.7282H40.9391V21.0903H44.7599V22.5123H40.9391V26.3027H39.0226V17.2999ZM47.0726 19.3568C46.682 20.0607 46.4866 20.8766 46.4866 21.8043C46.4866 22.728 46.682 23.5418 47.0726 24.2458C47.4672 24.9497 48.0227 25.4949 48.7388 25.8815C49.4591 26.2639 50.2871 26.4552 51.2229 26.4552C52.6471 26.4552 53.7925 26.03 54.6592 25.1795C55.526 24.3291 55.9593 23.2041 55.9593 21.8043C55.9593 20.4005 55.526 19.2755 54.6592 18.4291C53.7966 17.5787 52.6512 17.1535 51.2229 17.1535C50.283 17.1535 49.455 17.3447 48.7388 17.7272C48.0227 18.1097 47.4672 18.6529 47.0726 19.3568ZM49.16 24.1359C48.6595 23.554 48.4092 22.7768 48.4092 21.8043C48.4092 20.8278 48.6595 20.0506 49.16 19.4728C49.6645 18.8909 50.3522 18.6 51.2229 18.6C52.0978 18.6 52.7875 18.8909 53.292 19.4728C53.7966 20.0506 54.0489 20.8278 54.0489 21.8043C54.0489 22.7809 53.7966 23.5581 53.292 24.1359C52.7875 24.7137 52.0978 25.0026 51.2229 25.0026C50.3522 25.0026 49.6645 24.7137 49.16 24.1359ZM57.6616 17.2999H59.5842V23.141C59.5842 23.7351 59.751 24.1949 60.0847 24.5204C60.4184 24.8419 60.8944 25.0026 61.5129 25.0026C62.1314 25.0026 62.6055 24.8419 62.935 24.5204C63.2687 24.199 63.4356 23.7391 63.4356 23.141V17.2999H65.3642V23.0251C65.3642 24.0952 65.0306 24.9355 64.3632 25.5458C63.7 26.1521 62.7499 26.4552 61.5129 26.4552C60.3003 26.4552 59.3543 26.15 58.6747 25.5397C57.9993 24.9293 57.6616 24.0911 57.6616 23.0251V17.2999ZM69.5875 17.2999H67.4634V26.3027H69.3007V20.0527H69.4288L73.1275 26.3027H75.2394V17.2999H73.4022V23.5499H73.274L69.5875 17.2999ZM77.3873 17.2999H80.9032C82.3312 17.2999 83.464 17.7068 84.3024 18.5207C85.1448 19.3303 85.5664 20.4249 85.5664 21.8043C85.5664 23.1837 85.1448 24.2783 84.3024 25.088C83.464 25.8978 82.3312 26.3027 80.9032 26.3027H77.3873V17.2999ZM79.3038 18.7282V24.8805H80.8664C81.7328 24.8805 82.4104 24.6038 82.8984 24.0504C83.3912 23.4971 83.6376 22.7483 83.6376 21.8043C83.6376 20.8603 83.3912 20.1116 82.8984 19.5583C82.4104 19.0048 81.7328 18.7282 80.8664 18.7282H79.3038ZM86.3711 26.1134V26.3027H88.2935L88.9591 24.2885H92.3583L93.0175 26.3027H94.9463V26.1134L91.8703 17.2999H89.4471L86.3711 26.1134ZM91.9311 22.8907H89.3799L90.5951 19.192H90.7231L91.9311 22.8907ZM94.9888 17.2999H102.985V18.7282H99.9512V26.3027H98.0224V18.7282H94.9888V17.2999ZM106.426 17.2999H104.509V26.3027H106.426V17.2999ZM108.165 21.8043C108.165 20.8766 108.361 20.0607 108.751 19.3568C109.146 18.6529 109.701 18.1097 110.417 17.7272C111.133 17.3447 111.961 17.1535 112.901 17.1535C114.329 17.1535 115.475 17.5787 116.337 18.4291C117.205 19.2755 117.638 20.4005 117.638 21.8043C117.638 23.2041 117.205 24.3291 116.337 25.1795C115.471 26.03 114.325 26.4552 112.901 26.4552C111.965 26.4552 111.137 26.2639 110.417 25.8815C109.701 25.4949 109.146 24.9497 108.751 24.2458C108.361 23.5418 108.165 22.728 108.165 21.8043ZM110.088 21.8043C110.088 22.7768 110.338 23.554 110.838 24.1359C111.343 24.7137 112.031 25.0026 112.901 25.0026C113.777 25.0026 114.466 24.7137 114.97 24.1359C115.475 23.5581 115.728 22.7809 115.728 21.8043C115.728 20.8278 115.475 20.0506 114.97 19.4728C114.466 18.8909 113.777 18.6 112.901 18.6C112.031 18.6 111.343 18.8909 110.838 19.4728C110.338 20.0506 110.088 20.8278 110.088 21.8043ZM121.514 17.2999H119.39V26.3027H121.226V20.0527H121.354L125.054 26.3027H127.165V17.2999H125.328V23.5499H125.2L121.514 17.2999Z" fill="#FAFAFF"/>
</svg>
