<svg width="471" height="360" viewBox="0 0 471 360" fill="none" xmlns="http://www.w3.org/2000/svg">
<g clip-path="url(#clip0_540_149)">
<path d="M316.471 166.399C318.983 165.145 322.002 164.546 324.867 164.546C330.836 164.546 336.751 167.114 336.751 175.118V198.038H332.818V175.302C332.818 169.828 329.2 167.667 324.383 167.667C321.572 167.667 318.707 168.367 316.471 169.459V198.038H312.538V152.666H316.471V166.399Z" fill="white"/>
<path d="M375.857 155.988C375.857 157.195 375.074 158.21 373.684 158.21C372.385 158.21 371.456 157.28 371.456 155.988C371.456 154.604 372.47 153.82 373.684 153.82C374.982 153.82 375.857 154.689 375.857 155.988ZM371.694 165.068H375.627V198.03H371.694V165.068Z" fill="white"/>
<path d="M385.037 167.636C387.726 166.183 391.789 164.546 394.823 164.546C400.984 164.546 405.992 167.313 405.992 175.118V198.038H402.059V175.302C402.059 169.866 399.164 167.713 394.301 167.713C391.536 167.713 387.902 169.32 385.713 170.404V198.038H381.78V165.061H384.945L385.029 167.629L385.037 167.636Z" fill="white"/>
<path d="M166.297 151.398H159.468V197.761H184.633V191.349H166.297V151.398Z" fill="white"/>
<path d="M192.176 150.798C190.087 150.798 188.573 152.29 188.573 154.335C188.573 156.38 190.125 157.933 192.176 157.933C194.227 157.933 195.725 156.419 195.725 154.335C195.725 152.251 194.235 150.798 192.176 150.798Z" fill="white"/>
<path d="M195.487 164.961H188.804V197.753H195.487V164.961Z" fill="white"/>
<path d="M234.117 164.484C230.63 164.484 226.689 165.591 223.563 167.367C221.558 165.499 219.276 164.469 215.62 164.469C213.193 164.469 209.82 165.514 207.493 166.422L207.447 164.968H201.617V197.769H208.269V171.596C210.043 170.858 213.124 170.351 215.113 170.351C220.114 170.351 219.883 173.172 219.883 175.271V197.753H226.536V176.963C226.536 175.233 226.474 174.31 226.236 172.188C229.685 170.581 231.413 170.351 233.234 170.351C236.837 170.351 237.835 172.45 237.835 176.694V197.753H244.487V176.379C244.487 169.236 240.946 164.476 234.125 164.476L234.117 164.484Z" fill="white"/>
<path d="M275.352 184.629V176.94C275.352 169.09 270.559 164.407 262.524 164.407C254.489 164.407 249.012 169.259 249.012 177.071V188.073C249.012 195.293 253.698 198.445 261.548 198.445C266.119 198.445 270.067 197.138 273.278 194.562L269.237 190.518C267.094 191.871 264.605 192.571 261.825 192.571C256.24 192.571 255.595 189.542 255.595 187.266V184.636H275.352V184.629ZM255.687 176.94C255.687 171.212 259.92 170.358 262.439 170.358C265.381 170.358 268.884 171.481 268.884 176.809V179.17H255.687V176.948V176.94Z" fill="white"/>
<path d="M296.676 195.031C290.116 195.031 285.484 191.472 285.484 184.044V168.029C285.484 160.601 290.116 157.041 296.676 157.041C300.555 157.041 303.674 158.433 305.533 160.94L308.006 158.464C305.617 155.265 301.684 153.366 296.399 153.366C287.581 153.366 281.413 158.233 281.413 168.021V184.037C281.413 193.824 287.581 198.707 296.399 198.707C301.5 198.707 305.333 196.931 307.745 193.924L305.272 191.449C303.39 193.747 300.378 195.016 296.676 195.016V195.031Z" fill="white"/>
<path d="M352.398 164.553C348.742 164.553 346.045 165.391 344.064 166.598L346.337 168.874C347.897 168.221 349.779 167.836 352.022 167.836C360.287 167.836 361.508 171.934 361.593 176.186C359.066 175.856 356.462 175.587 354.211 175.587C347.313 175.587 340.822 177.678 340.822 186.128C340.822 194.578 345.723 198.707 352.467 198.707C356.561 198.707 359.688 196.946 362.277 195.501L362.361 198.153H365.526V177.632C365.526 171.173 364.228 164.553 352.398 164.553ZM361.593 192.648C359.473 193.778 357.445 195.162 353.043 195.508C347.835 195.908 344.494 191.941 344.494 186.136C344.494 180.038 349.179 178.516 354.749 178.516C356.969 178.516 359.334 178.762 361.601 179.054V192.648H361.593Z" fill="white"/>
<path d="M129.356 170.243C129.356 157.387 124.855 151.075 118.878 146.761L134.503 130H123.726L70.308 187.081L70.1543 189.749C70.1543 202.605 74.6557 208.917 80.632 213.231L65 230H75.7772L129.195 172.911L129.348 170.243H129.356ZM85.6788 207.826C80.9239 204.527 77.9665 200.091 77.7514 190.857L113.832 152.174C118.587 155.473 121.544 159.909 121.759 169.143L85.6788 207.826Z" fill="white"/>
<path d="M106.258 226.471L110.421 219.674C116.566 216.737 124.455 210.978 127.774 200.098C128.826 196.654 129.348 187.42 129.348 183.222V177.632L121.69 185.913C121.674 186.143 121.644 186.643 121.621 186.928C121.36 189.98 120.661 198.099 119.662 200.383C117.142 206.157 112.449 210.74 106.096 213.631C105.405 213.946 104.837 214.438 104.452 215.068L99.7897 222.68L94.9657 214.815L89.6808 220.527L93.3295 226.479C94.6815 228.685 97.0935 230.008 99.7897 230.008C102.486 230.008 104.898 228.693 106.25 226.479L106.258 226.471Z" fill="white"/>
<path d="M93.2528 133.529L89.0894 140.326C82.9441 143.263 75.0551 149.022 71.7367 159.902C70.6843 163.346 70.162 172.58 70.162 176.778V182.368L77.8205 174.087C77.8359 173.857 77.8666 173.357 77.8896 173.072C78.1508 170.02 78.8498 161.901 79.8484 159.617C82.368 153.843 87.0614 149.26 93.4141 146.369C94.1054 146.054 94.6739 145.562 95.0579 144.932L99.7206 137.32L104.545 145.185L109.83 139.473L106.181 133.521C104.829 131.315 102.417 129.992 99.7206 129.992C97.0244 129.992 94.6124 131.307 93.2605 133.521L93.2528 133.529Z" fill="white"/>
</g>
<defs>
<clipPath id="clip0_540_149">
<rect width="341" height="100" fill="white" transform="translate(65 130)"/>
</clipPath>
</defs>
</svg>
