<svg width="471" height="360" viewBox="0 0 471 360" fill="none" xmlns="http://www.w3.org/2000/svg">
<g clip-path="url(#clip0_323_75)">
<path d="M287.74 171.233C289.36 170.425 291.308 170.039 293.156 170.039C297.007 170.039 300.823 171.694 300.823 176.853V191.626H298.286V176.972C298.286 173.443 295.951 172.051 292.844 172.051C291.03 172.051 289.182 172.502 287.74 173.206V191.626H285.202V162.382H287.74V171.233Z" fill="white"/>
<path d="M326.053 164.523C326.053 165.301 325.548 165.955 324.651 165.955C323.813 165.955 323.213 165.355 323.213 164.523C323.213 163.631 323.868 163.125 324.651 163.125C325.488 163.125 326.053 163.685 326.053 164.523ZM323.367 170.376H325.904V191.621H323.367V170.376Z" fill="white"/>
<path d="M331.975 172.031C333.71 171.094 336.332 170.039 338.289 170.039C342.264 170.039 345.495 171.823 345.495 176.853V191.626H342.958V176.972C342.958 173.468 341.089 172.081 337.952 172.081C336.168 172.081 333.824 173.116 332.412 173.815V191.626H329.874V170.371H331.916L331.97 172.026L331.975 172.031Z" fill="white"/>
<path d="M190.853 161.564H186.447V191.448H202.682V187.315H190.853V161.564Z" fill="white"/>
<path d="M207.549 161.178C206.201 161.178 205.225 162.139 205.225 163.457C205.225 164.776 206.226 165.777 207.549 165.777C208.872 165.777 209.839 164.8 209.839 163.457C209.839 162.114 208.877 161.178 207.549 161.178Z" fill="white"/>
<path d="M209.685 170.306H205.373V191.443H209.685V170.306Z" fill="white"/>
<path d="M234.608 169.999C232.358 169.999 229.816 170.713 227.798 171.858C226.505 170.653 225.033 169.989 222.674 169.989C221.108 169.989 218.932 170.663 217.431 171.248L217.401 170.311H213.64V191.453H217.931V174.583C219.076 174.108 221.064 173.78 222.347 173.78C225.573 173.78 225.425 175.599 225.425 176.952V191.443H229.716V178.042C229.716 176.927 229.677 176.333 229.523 174.965C231.748 173.929 232.863 173.78 234.038 173.78C236.362 173.78 237.006 175.133 237.006 177.869V191.443H241.298V177.666C241.298 173.062 239.014 169.994 234.613 169.994L234.608 169.999Z" fill="white"/>
<path d="M261.211 182.983V178.028C261.211 172.968 258.118 169.95 252.935 169.95C247.751 169.95 244.217 173.077 244.217 178.112V185.204C244.217 189.857 247.24 191.889 252.305 191.889C255.254 191.889 257.801 191.047 259.873 189.386L257.266 186.78C255.883 187.652 254.278 188.103 252.484 188.103C248.881 188.103 248.464 186.15 248.464 184.683V182.988H261.211V182.983ZM248.524 178.028C248.524 174.335 251.254 173.785 252.88 173.785C254.778 173.785 257.038 174.509 257.038 177.943V179.465H248.524V178.033V178.028Z" fill="white"/>
<path d="M274.968 189.689C270.736 189.689 267.748 187.394 267.748 182.607V172.284C267.748 167.496 270.736 165.202 274.968 165.202C277.471 165.202 279.483 166.099 280.682 167.714L282.278 166.119C280.737 164.057 278.199 162.833 274.79 162.833C269.101 162.833 265.121 165.97 265.121 172.279V182.602C265.121 188.911 269.101 192.058 274.79 192.058C278.08 192.058 280.553 190.913 282.11 188.975L280.514 187.379C279.3 188.861 277.357 189.679 274.968 189.679V189.689Z" fill="white"/>
<path d="M310.918 170.044C308.559 170.044 306.819 170.584 305.541 171.362L307.008 172.829C308.014 172.408 309.228 172.16 310.675 172.16C316.008 172.16 316.796 174.801 316.85 177.542C315.22 177.329 313.54 177.155 312.087 177.155C307.637 177.155 303.449 178.503 303.449 183.95C303.449 189.396 306.611 192.058 310.963 192.058C313.604 192.058 315.621 190.923 317.291 189.991L317.346 191.701H319.387V178.474C319.387 174.311 318.55 170.044 310.918 170.044ZM316.85 188.152C315.482 188.881 314.174 189.773 311.334 189.996C307.974 190.254 305.818 187.696 305.818 183.955C305.818 180.025 308.841 179.044 312.434 179.044C313.867 179.044 315.393 179.202 316.855 179.39V188.152H316.85Z" fill="white"/>
<path d="M167.02 173.711C167.02 165.425 164.116 161.356 160.26 158.576L170.34 147.772H163.387L128.924 184.564L128.825 186.284C128.825 194.57 131.729 198.639 135.585 201.419L125.5 212.228H132.453L166.916 175.431L167.015 173.711H167.02ZM138.841 197.935C135.773 195.809 133.865 192.95 133.727 186.998L157.004 162.065C160.072 164.191 161.98 167.05 162.119 173.002L138.841 197.935Z" fill="white"/>
<path d="M152.118 209.953L154.804 205.572C158.769 203.679 163.858 199.967 165.999 192.955C166.678 190.734 167.015 184.782 167.015 182.077V178.474L162.074 183.811C162.064 183.96 162.044 184.282 162.029 184.465C161.861 186.433 161.41 191.666 160.766 193.138C159.14 196.86 156.112 199.813 152.014 201.677C151.568 201.88 151.201 202.197 150.953 202.604L147.945 207.51L144.833 202.44L141.423 206.122L143.777 209.958C144.649 211.38 146.205 212.233 147.945 212.233C149.684 212.233 151.241 211.385 152.113 209.958L152.118 209.953Z" fill="white"/>
<path d="M143.728 150.047L141.042 154.428C137.077 156.321 131.987 160.033 129.846 167.045C129.167 169.266 128.83 175.218 128.83 177.923V181.526L133.771 176.189C133.781 176.04 133.801 175.718 133.816 175.535C133.984 173.567 134.435 168.334 135.08 166.862C136.705 163.14 139.733 160.187 143.832 158.323C144.278 158.12 144.644 157.803 144.892 157.396L147.9 152.49L151.013 157.56L154.422 153.878L152.068 150.042C151.196 148.62 149.64 147.767 147.9 147.767C146.161 147.767 144.605 148.615 143.733 150.042L143.728 150.047Z" fill="white"/>
</g>
<rect x="0.5" y="0.5" width="470" height="359" rx="11.5" stroke="#7979A3"/>
<defs>
<clipPath id="clip0_323_75">
<rect width="220" height="64.4557" fill="white" transform="translate(125.5 147.772)"/>
</clipPath>
</defs>
</svg>
